{"title":"Bridesmaids.2011.BRRip.XviD.Ac3.Feel-Free","uid":6656262,"size":1693757440,"categoryP":"video","categoryS":"movies","magnet":"?xt=urn:btih:f025aec2032de6321fe8d8d879f577b4511667c6&amp;dn=Bridesmaids.2011.BRRip.XviD.Ac3.Feel-Free&amp;tr=udp%3A%2F%2Ftracker.openbittorrent.com%3A80&amp;tr=udp%3A%2F%2Fopen.demonii.com%3A1337&amp;tr=udp%3A%2F%2Ftracker.coppersurfer.tk%3A6969&amp;tr=udp%3A%2F%2Fexodus.desync.com%3A6969","seeders":1,"leechers":0,"uploader":"SnowCrash03","files":-1,"time":1315331443,"description":"Genre: Comedy\n Language: English\n IMDb: http://www.imdb.com/title/tt1478338/\n Source: BluRay.x264-REFiNED Thanks!\n-\n\nFormat : AVI\n Format/Info : Audio Video Interleave\n File size : 1.58 GiB\n Duration : 2h 10mn\n Overall bit rate : 1 733 Kbps\n-\n \nVideo\n ID : 0\n Format : MPEG-4 Visual\n Format profile : Advanced Simple@L5\n Format settings, BVOP : Yes\n Format settings, QPel : No\n Format settings, GMC : No warppoints\n Format settings, Matrix : Default (H.263)\n Codec ID : XVID\n Codec ID/Hint : XviD\n Duration : 2h 10mn\n Bit rate : 1 276 Kbps\n Width : 624 pixels\n Height : 264 pixels\n Display aspect ratio : 2.35:1\n Frame rate : 23.976 fps\n Color space : YUV\n Chroma subsampling : 4:2:0\n Bit depth : 8 bits\n Scan type : Progressive\n Bits/(Pixel*Frame) : 0.323\n Stream size : 1.16 GiB (74%)\n Writing library : XviD 1.2.1 (UTC 2008-12-04)\n \nAudio\n ID : 1\n Format : AC-3\n Format/Info : Audio Coding 3\n Mode extension : CM (complete main)\n Codec ID : 2000\n Duration : 2h 10mn\n Bit rate mode : Constant\n Bit rate : 448 Kbps\n Channel(s) : 6 channels\n Channel positions : Front: L C R, Side: L R, LFE\n Sampling rate : 48.0 KHz\n Bit depth : 16 bits\n Stream size : 418 MiB (26%)\n Alignment : Aligned on interleaves\n Interleave, duration : 42 ms (1.00 video frame)\n Interleave, preload duration : 512 ms\n \n-\n\nPlot:\n Picked as her best friend's maid of honor, lovelorn and broke Annie looks to bluff her way through the expensive and bizarre rituals with an oddball group of bridesmaids\n \n","torrent":{"xt":"urn:btih:f025aec2032de6321fe8d8d879f577b4511667c6","amp;dn":"Bridesmaids.2011.BRRip.XviD.Ac3.Feel-Free","amp;tr":["udp%3A%2F%2Ftracker.openbittorrent.com%3A80","udp%3A%2F%2Fopen.demonii.com%3A1337","udp%3A%2F%2Ftracker.coppersurfer.tk%3A6969","udp%3A%2F%2Fexodus.desync.com%3A6969"],"infoHash":"f025aec2032de6321fe8d8d879f577b4511667c6","infoHashBuffer":{"type":"Buffer","data":[240,37,174,194,3,45,230,50,31,232,216,216,121,245,119,180,81,22,103,198]},"announce":[],"urlList":[]}}